<?xml version="1.0" encoding="utf-8"?>
<svg viewBox="0 0 500 500" xmlns="http://www.w3.org/2000/svg">
  <path fill="#DE2A28" opacity="1.000000" stroke="none" d="M 148.709 199.25 C 132.751 199.25 116.792 199.25 100.043 199.25 C 102.478 191.956 104.741 185.053 107.087 178.178 C 113.213 160.226 119.353 142.28 125.531 124.346 C 128.651 115.289 133.915 111.445 143.422 111.439 C 193.074 111.406 242.726 111.407 292.378 111.434 C 302.459 111.44 307.649 115.48 310.848 124.944 C 318.466 147.487 326.281 169.963 333.87 192.516 C 334.586 194.644 334.268 197.121 333.974 199.019 C 332.993 197.569 332.579 196.459 331.927 195.513 C 322.236 181.444 312.548 167.372 302.779 153.356 C 299.481 148.625 295.961 144.05 292.472 139.078 C 289.529 135.862 286.658 132.972 282.77 129.057 C 276.491 135.774 270.536 142.145 263.924 149.217 C 257.658 142.645 251.72 136.416 245.892 130.303 C 242.665 133.228 239.655 135.956 235.436 139.779 C 242.288 146.145 248.688 152.09 255.582 158.495 C 249.066 164.607 242.771 170.514 236.301 176.583 C 239.725 179.976 242.648 182.871 245.628 186.107 C 247.681 190.716 249.676 194.985 251.671 199.254 C 239.314 199.327 226.958 199.399 214.109 199.022 C 210.193 193.477 206.769 188.382 203.34 182.946 C 195.851 169.468 188.377 156.326 180.882 143.196 C 177.885 137.945 174.84 132.721 171.491 126.921 C 165.098 138.009 159.14 148.2 153.325 158.472 C 148.67 166.693 144.188 175.012 139.714 183.631 C 142.768 189.066 145.739 194.158 148.709 199.25 Z"/>
  <path fill="#828385" opacity="1.000000" stroke="none" d="M 252.588 295.431 C 241.225 295.506 229.861 295.581 218.051 295.114 C 217.608 279.762 217.4 264.948 217.733 250.146 C 217.847 245.062 216.654 241.247 212.67 237.996 C 207.841 234.055 203.343 229.708 198.543 225.168 C 196.681 224.472 194.978 223.868 193.271 223.858 C 180.143 223.779 167.013 223.814 153.884 223.814 C 150.942 223.814 148 223.814 145.023 223.814 C 144.795 225.049 144.576 225.68 144.575 226.312 C 144.553 242.598 144.534 258.885 144.591 275.171 C 144.595 276.239 145.206 277.305 145.666 278.687 C 147.272 280.557 148.784 282.08 150.215 283.674 C 153.697 287.556 157.142 291.471 160.603 295.373 C 152.448 295.452 144.287 295.747 136.139 295.54 C 130.019 295.384 124.977 287.945 124.939 279.448 C 124.872 264.286 124.92 249.124 124.919 233.962 C 124.919 226 124.919 218.039 124.919 209.771 C 187.173 209.771 248.893 209.771 311.168 209.771 C 311.168 230.493 311.168 251.092 310.708 271.997 C 306.999 265.994 303.846 259.634 300.459 253.4 C 298.79 250.328 296.688 247.491 294.632 244.191 C 291.039 230.909 280.453 221.425 268.377 220.45 C 253.718 219.265 241.685 226.051 236.319 239.098 C 231.186 251.581 234.068 262.821 242.647 273.268 C 243.445 275.966 244.099 278.331 245.135 280.513 C 247.52 285.533 250.092 290.464 252.588 295.431 Z"/>
  <path fill="#9F3224" opacity="1.000000" stroke="none" d="M 292.543 139.403 C 295.961 144.05 299.481 148.625 302.779 153.356 C 312.548 167.372 322.236 181.444 331.927 195.513 C 332.579 196.459 332.993 197.569 333.589 198.94 C 306.629 199.338 279.597 199.398 252.118 199.357 C 249.676 194.985 247.681 190.716 245.919 185.922 C 252.071 179.182 257.99 172.969 264.692 165.934 C 271.477 173.172 277.444 179.538 283.321 185.808 C 286.608 182.451 289.437 179.562 293.192 175.728 C 286.885 169.84 280.505 163.885 274.527 158.304 C 280.678 151.85 286.611 145.627 292.543 139.403 Z"/>
  <path fill="#646466" opacity="1.000000" stroke="none" d="M 161.062 295.462 C 157.142 291.471 153.697 287.556 150.215 283.674 C 148.784 282.08 147.272 280.557 146.132 278.614 C 163.737 278.226 181.006 278.226 198.702 278.226 C 198.702 260.165 198.702 242.851 198.702 225.536 C 203.343 229.708 207.841 234.055 212.67 237.996 C 216.654 241.247 217.847 245.062 217.733 250.146 C 217.4 264.948 217.608 279.762 217.588 295.04 C 198.887 295.523 180.204 295.537 161.062 295.462 Z"/>
  <path fill="#656567" opacity="1.000000" stroke="none" d="M 253.049 295.517 C 250.092 290.464 247.52 285.533 245.135 280.513 C 244.099 278.331 243.445 275.966 242.945 273.476 C 254.79 282.816 267.879 284.492 279.646 277.924 C 291.461 271.331 297.032 259.045 294.782 244.548 C 296.688 247.491 298.79 250.328 300.459 253.4 C 303.846 259.634 306.999 265.994 310.521 272.432 C 310.744 276.525 311.202 280.578 310.536 284.436 C 309.29 291.654 304.121 295.656 296.972 295.658 C 282.484 295.661 267.997 295.624 253.049 295.517 Z"/>
  <path fill="#7844E6" opacity="1.000000" stroke="none" d="M 237.587 103.322 C 237.159 103.676 236.73 104.03 235.569 104.417 C 234.014 104.434 233.192 104.408 232.369 104.403 C 225.547 104.365 225.545 104.366 225.538 97.725 C 225.534 93.928 225.537 90.132 225.537 86.336 C 225.16 86.318 224.783 86.3 224.406 86.282 C 224.138 87.137 223.87 87.993 223.602 88.848 C 220.257 89.865 217.352 94.346 212.905 89.629 C 212.122 87.79 211.781 86.47 211.439 85.15 C 211.166 85.19 210.892 85.229 210.618 85.269 C 210.618 91.32 210.618 97.372 210.618 103.423 C 210.199 103.785 209.78 104.147 208.621 104.528 C 207.054 104.529 206.227 104.501 205.4 104.497 C 198.585 104.458 198.593 104.459 198.576 97.759 C 198.55 87.335 198.512 76.911 198.479 66.487 C 199.38 66.126 200.282 65.764 201.98 65.405 C 208.741 64.396 212.926 66.332 214.836 72.418 C 215.262 73.775 216.355 74.921 217.14 76.165 C 217.645 75.791 218.15 75.418 218.654 75.044 C 218.952 74.653 219.391 74.306 219.527 73.866 C 221.829 66.395 227.076 64.096 235.234 65.445 C 236.567 67.162 237.423 68.772 237.445 70.393 C 237.591 81.368 237.561 92.346 237.587 103.322 Z"/>
  <path fill="#7747E7" opacity="1.000000" stroke="none" d="M 290.525 339.295 C 290.06 339.675 289.595 340.055 288.394 340.487 C 278.205 340.393 278.211 340.393 277.669 330.868 C 277.633 330.236 277.425 329.613 277.225 328.628 C 275.503 328.628 273.886 328.628 272.269 328.628 C 269.089 328.491 269.86 330.836 269.485 332.718 C 268.97 335.303 267.968 337.79 266.373 340.429 C 264.579 340.523 263.587 340.497 262.596 340.493 C 255.683 340.465 255.69 340.466 255.677 333.331 C 255.657 323.085 255.625 312.839 255.598 302.593 C 256.499 302.177 257.4 301.761 259.111 301.371 C 263.738 301.402 267.555 301.411 271.372 301.411 C 285.687 301.413 286.586 302.307 286.563 316.547 C 286.563 316.547 286.549 316.482 286.321 316.656 C 286.139 317.796 285.815 319.328 286.29 319.64 C 289.753 321.91 290.559 325.18 290.469 328.996 C 290.388 332.427 290.499 335.862 290.525 339.295 Z"/>
  <path fill="#7846E7" opacity="1.000000" stroke="none" d="M 248.638 339.207 C 248.143 339.607 247.649 340.007 246.395 340.449 C 243.66 340.472 241.607 340.772 239.737 340.319 C 238.539 340.029 236.611 338.481 236.718 337.745 C 237.707 330.932 232.62 327.583 228.84 322.732 C 228.775 324.019 228.743 324.653 228.71 325.287 C 228.517 328.51 228.559 331.772 228.041 334.942 C 227.732 336.834 226.543 338.583 224.959 340.469 C 223.338 340.525 222.508 340.498 221.677 340.494 C 214.684 340.459 214.691 340.461 214.678 333.349 C 214.66 323.052 214.63 312.754 214.605 302.457 C 215.477 302.106 216.349 301.754 217.98 301.403 C 222.898 300.751 225.978 302.342 228.385 305.737 C 229.176 306.853 230.532 307.569 231.63 308.468 C 231.63 308.468 231.569 308.498 231.553 308.814 C 232.358 310.222 233.18 311.315 234.559 313.149 C 234.981 311.421 235.211 310.482 235.441 309.543 C 236.622 306.766 232.98 301.705 240.144 301.321 C 248.518 301.279 248.504 301.279 248.523 308.755 C 248.548 318.906 248.598 329.056 248.638 339.207 Z"/>
  <path fill="#7844E6" opacity="1.000000" stroke="none" d="M 174.363 302.194 C 175.053 301.93 175.742 301.665 177.222 301.403 C 184.168 301.433 190.325 301.397 196.48 301.509 C 200.823 301.588 204.053 303.61 204.474 308.103 C 204.815 311.739 204.214 315.463 204.011 319.538 C 207.309 320.944 208.652 324.211 208.53 328.427 C 208.424 332.083 208.563 335.746 208.593 339.406 C 207.583 339.933 206.621 340.603 205.555 340.965 C 198.229 343.445 195.605 341.605 195.572 334.009 C 195.56 331.153 196.112 328.407 191.444 328.525 C 187.17 328.633 186.498 330.508 186.624 334.085 C 186.695 336.111 185.899 338.168 184.664 340.33 C 183.005 340.433 182.175 340.408 181.344 340.403 C 174.541 340.365 174.557 340.366 174.529 333.58 C 174.487 323.118 174.42 312.656 174.363 302.194 Z"/>
  <path fill="#7944E6" opacity="1.000000" stroke="none" d="M 171.817 95.64 C 170.806 98.541 169.794 101.442 167.977 104.444 C 163.955 104.543 160.738 104.542 157.522 104.54 C 157.522 104.54 157.569 104.503 157.685 104.07 C 157.842 97.912 157.884 92.188 158.137 86.213 C 158.777 83.472 159.204 80.982 159.632 78.491 C 160.842 75.372 161.796 72.115 163.367 69.19 C 164.198 67.642 166.103 66.671 168.332 65.424 C 172.611 65.413 176.091 65.588 179.547 65.372 C 182.963 65.158 184.56 66.419 186.155 69.655 C 191.462 80.424 192.315 91.768 191.883 103.413 C 191.532 103.733 191.181 104.053 190.068 104.434 C 180.793 104.361 180.793 104.361 178.901 94.304 C 176.565 94.745 174.191 95.192 171.817 95.64 Z"/>
  <path fill="#9F3224" opacity="1.000000" stroke="none" d="M 149.153 199.353 C 145.739 194.158 142.768 189.066 140.179 183.615 C 161.489 183.266 182.418 183.276 203.346 183.287 C 206.769 188.382 210.193 193.477 213.657 198.927 C 192.331 199.34 170.964 199.399 149.153 199.353 Z"/>
  <path fill="#7747E7" opacity="1.000000" stroke="none" d="M 137.938 89.551 C 138.794 84.5 148.278 80.764 152.175 84.021 C 152.852 84.587 153.359 85.741 153.382 86.638 C 153.507 91.448 154.105 96.399 153.145 101.011 C 152.754 102.886 148.965 105.001 146.511 105.304 C 141.28 105.951 135.911 105.485 129.964 105.11 C 120.954 102.618 118.84 96.834 119.492 88.894 C 119.966 83.122 119.58 77.279 119.577 71.468 C 119.577 71.468 119.587 71.511 119.842 71.46 C 120.233 71.068 120.368 70.726 120.503 70.385 C 120.503 70.385 120.547 70.45 120.732 70.329 C 121.132 69.753 121.347 69.297 121.562 68.842 C 124.552 67.718 127.481 65.879 130.544 65.621 C 136.613 65.109 142.755 65.47 149.551 65.47 C 149.551 67.817 149.968 70.015 149.412 71.93 C 149.005 73.333 147.478 75.154 146.175 75.414 C 142.341 76.179 138.371 76.259 133.62 76.684 C 132.417 80.919 131.803 85.074 131.742 89.237 C 131.662 94.634 132.254 94.937 137.938 93.808 C 137.938 92.404 137.938 90.978 137.938 89.551 Z"/>
  <path fill="#7844E6" opacity="1.000000" stroke="none" d="M 289.614 90.587 C 289.614 90.587 289.213 90.672 288.801 90.303 C 280.53 86.501 278.574 82.908 279.878 74.281 C 280.096 72.833 280.335 71.389 280.565 69.943 C 280.565 69.943 280.552 69.876 280.767 69.706 C 281.214 69.328 281.389 69.079 281.506 68.789 C 284.304 67.676 287.044 65.826 289.911 65.6 C 296.143 65.11 302.441 65.449 308.672 65.449 C 308.831 65.944 309.005 66.204 308.979 66.444 C 308.044 75.216 308.042 75.221 297.521 76.528 C 296.392 76.668 295.249 76.697 294.112 76.777 C 294.026 77.26 293.94 77.743 293.854 78.225 C 296.461 78.668 299.068 79.11 302.295 79.89 C 304.809 80.663 306.703 81.098 308.597 81.534 C 308.597 81.534 308.546 81.529 308.353 81.879 C 308.997 87.339 309.835 92.449 310.672 97.559 C 308.175 99.858 305.679 102.156 302.364 104.496 C 297.259 104.523 292.972 104.49 288.686 104.498 C 277.926 104.517 279.996 104.99 279.619 95.492 C 283.436 95.116 287.252 94.723 291.071 94.372 C 292.847 94.209 294.63 94.129 296.41 94.011 C 296.452 93.51 296.494 93.008 296.537 92.506 C 294.705 91.876 292.873 91.247 290.484 90.599 C 289.927 90.581 289.614 90.587 289.614 90.587 Z"/>
  <path fill="#7745E6" opacity="1.000000" stroke="none" d="M 269.808 88.413 C 266.288 89.415 262.767 90.416 259.163 91.441 C 259.412 93.266 259.412 93.266 275.499 94.742 C 274.702 98.008 273.927 101.186 272.355 104.426 C 264.408 104.472 257.248 104.248 250.107 104.523 C 246.253 104.671 245.327 103.266 245.376 99.639 C 245.526 88.501 245.335 77.358 245.276 66.217 C 245.568 65.947 245.86 65.676 246.881 65.357 C 256.446 65.38 265.283 65.453 274.119 65.525 C 275.36 73.713 276.295 76.183 267.176 76.49 C 264.696 76.574 262.212 76.5 259.021 76.222 C 257.217 79.578 257.216 79.617 261.695 79.626 C 270.629 79.644 269.647 79.01 269.736 87.435 C 269.739 87.762 269.783 88.087 269.808 88.413 Z"/>
  <path fill="#7944E6" opacity="1.000000" stroke="none" d="M 168.286 330.443 C 169.189 340.481 168.293 341.502 158.554 341.501 C 156.221 341.501 153.889 341.481 150.886 341.113 C 145.45 339.238 139.882 338.022 139.761 331.81 C 139.59 323.072 140.344 314.316 140.703 305.568 C 143.895 304.205 146.997 302.022 150.3 301.658 C 156.143 301.015 162.108 301.478 168.532 301.478 C 168.532 303.916 168.942 306.128 168.392 308.069 C 168.01 309.42 166.471 311.117 165.17 311.406 C 161.688 312.18 158.055 312.279 153.641 312.625 C 152.389 317.008 151.913 321.408 151.588 325.819 C 151.34 329.193 153.189 330.558 156.416 330.505 C 160.372 330.44 164.329 330.46 168.286 330.443 Z"/>
  <path fill="#24E8FC" opacity="1.000000" stroke="none" d="M 208.963 339.282 C 208.563 335.746 208.424 332.083 208.53 328.427 C 208.652 324.211 207.309 320.944 204.011 319.538 C 204.214 315.463 204.815 311.739 204.474 308.103 C 204.053 303.61 200.823 301.588 196.48 301.509 C 190.325 301.397 184.168 301.433 177.609 301.39 C 178.038 300.884 178.859 299.989 179.7 299.969 C 185 299.845 190.31 299.753 195.605 299.959 C 204.275 300.298 207.139 303.551 206.555 312.176 C 206.435 313.956 205.845 315.705 205.444 317.596 C 212.682 323.556 210.657 331.423 208.963 339.282 Z"/>
  <path fill="#E70FFB" opacity="1.000000" stroke="none" d="M 244.901 66.381 C 245.335 77.358 245.526 88.501 245.376 99.639 C 245.327 103.266 246.253 104.671 250.107 104.523 C 257.248 104.248 264.408 104.472 272.018 104.528 C 267.789 104.887 263.104 105.305 258.411 105.493 C 254.604 105.645 250.761 105.764 246.987 105.381 C 245.759 105.256 243.728 103.518 243.708 102.485 C 243.485 91.051 243.574 79.61 243.639 68.172 C 243.643 67.628 244.217 67.087 244.901 66.381 Z"/>
  <path fill="#24E8FC" opacity="1.000000" stroke="none" d="M 192.165 103.299 C 192.315 91.768 191.462 80.424 186.155 69.655 C 184.56 66.419 182.963 65.158 179.547 65.372 C 176.091 65.588 172.611 65.413 168.759 65.394 C 170.531 64.887 172.685 63.975 174.841 63.971 C 188.348 63.947 184.549 62.854 189.703 73.89 C 194.188 83.494 192.01 93.388 192.165 103.299 Z"/>
  <path fill="#E70FFB" opacity="1.000000" stroke="none" d="M 140.384 305.759 C 140.344 314.316 139.59 323.072 139.761 331.81 C 139.882 338.022 145.45 339.238 150.43 341.043 C 141.357 341.361 137.569 337.672 137.58 328.618 C 137.585 323.815 137.295 318.988 137.69 314.218 C 137.922 311.415 139.237 308.702 140.384 305.759 Z"/>
  <path fill="#24E8FC" opacity="1.000000" stroke="none" d="M 286.921 316.395 C 286.586 302.307 285.687 301.413 271.372 301.411 C 267.555 301.411 263.738 301.402 259.507 301.379 C 259.28 300.931 259.471 300.122 259.649 300.125 C 267.278 300.249 274.987 299.835 282.508 300.831 C 288.204 301.586 290.016 308.705 286.921 316.395 Z"/>
  <path fill="#F62DFD" opacity="1.000000" stroke="none" d="M 119.272 71.703 C 119.58 77.279 119.966 83.122 119.492 88.894 C 118.84 96.834 120.954 102.618 129.506 105.055 C 121.651 105.046 117.835 101.711 117.835 94.022 C 117.834 86.661 118.561 79.3 119.272 71.703 Z"/>
  <path fill="#60FEFF" opacity="1.000000" stroke="none" d="M 168.272 330.055 C 164.329 330.46 160.372 330.44 156.416 330.505 C 153.189 330.558 151.34 329.193 151.588 325.819 C 151.913 321.408 152.389 317.008 153.215 312.697 C 153.626 312.956 153.616 313.122 153.619 313.287 C 153.708 317.915 152.213 323.643 154.411 326.806 C 156.039 329.148 162.473 328.124 166.755 328.681 C 167.29 328.751 167.759 329.325 168.272 330.055 Z"/>
  <path fill="#03FFFF" opacity="1.000000" stroke="none" d="M 248.961 338.963 C 248.598 329.056 248.548 318.906 248.523 308.755 C 248.504 301.279 248.518 301.279 240.596 301.297 C 243.121 300.78 246.027 300.243 249.284 299.641 C 249.284 313.408 249.284 326.064 248.961 338.963 Z"/>
  <path fill="#24E8FC" opacity="1.000000" stroke="none" d="M 218.533 74.747 C 218.15 75.418 217.645 75.791 217.14 76.165 C 216.355 74.921 215.262 73.775 214.836 72.418 C 212.926 66.332 208.741 64.396 202.372 65.392 C 205.606 62.65 211.933 63.353 214.037 66.793 C 215.569 69.3 216.958 71.895 218.533 74.747 Z"/>
  <path fill="#E70FFB" opacity="1.000000" stroke="none" d="M 228.925 325.621 C 228.743 324.653 228.775 324.019 228.84 322.732 C 232.62 327.583 237.707 330.932 236.718 337.745 C 236.611 338.481 238.539 340.029 239.737 340.319 C 241.607 340.772 243.66 340.472 246.086 340.533 C 243.205 340.865 239.873 341.288 236.538 341.322 C 235.936 341.329 234.679 339.622 234.809 338.903 C 235.832 333.242 232.369 329.673 228.925 325.621 Z"/>
  <path fill="#FE06FF" opacity="1.000000" stroke="none" d="M 214.219 302.67 C 214.63 312.754 214.66 323.052 214.678 333.349 C 214.691 340.461 214.684 340.459 221.677 340.494 C 222.508 340.498 223.338 340.525 224.568 340.579 C 221.771 340.9 218.572 341.354 215.376 341.328 C 214.716 341.323 213.504 339.531 213.505 338.563 C 213.51 326.669 213.694 314.776 214.219 302.67 Z"/>
  <path fill="#FE06FF" opacity="1.000000" stroke="none" d="M 255.244 302.825 C 255.625 312.839 255.657 323.085 255.677 333.331 C 255.69 340.466 255.683 340.465 262.596 340.493 C 263.587 340.497 264.579 340.523 266.013 340.579 C 263.25 340.902 260.039 341.401 256.843 341.318 C 256.06 341.298 254.673 339.381 254.669 338.331 C 254.618 326.573 254.783 314.815 255.244 302.825 Z"/>
  <path fill="#CC1AF6" opacity="1.000000" stroke="none" d="M 174.131 302.302 C 174.42 312.656 174.487 323.118 174.529 333.58 C 174.557 340.366 174.541 340.365 181.344 340.403 C 182.175 340.408 183.005 340.433 184.3 340.492 C 181.218 340.807 177.671 341.078 173.845 340.583 C 173.561 327.473 173.557 315.13 173.553 302.788 C 173.668 302.662 173.783 302.536 174.131 302.302 Z"/>
  <path fill="#FE06FF" opacity="1.000000" stroke="none" d="M 198.119 66.725 C 198.512 76.911 198.55 87.335 198.576 97.759 C 198.593 104.459 198.585 104.458 205.4 104.497 C 206.227 104.501 207.054 104.529 208.349 104.598 C 205.756 104.927 202.687 105.426 199.638 105.325 C 198.864 105.299 197.517 103.366 197.513 102.306 C 197.473 90.526 197.645 78.744 198.119 66.725 Z"/>
  <path fill="#CC1AF6" opacity="1.000000" stroke="none" d="M 223.585 89.285 C 223.87 87.993 224.138 87.137 224.406 86.282 C 224.783 86.3 225.16 86.318 225.537 86.336 C 225.537 90.132 225.534 93.928 225.538 97.725 C 225.545 104.366 225.547 104.365 232.369 104.403 C 233.192 104.408 234.014 104.434 235.301 104.494 C 232.414 104.84 229.059 105.346 225.714 105.284 C 224.982 105.27 223.745 103.261 223.675 102.114 C 223.423 97.996 223.571 93.854 223.585 89.285 Z"/>
  <path fill="#24E8FC" opacity="1.000000" stroke="none" d="M 138.021 89.269 C 137.938 90.978 137.938 92.404 137.938 93.808 C 132.254 94.937 131.662 94.634 131.742 89.237 C 131.803 85.074 132.417 80.919 133.182 76.728 C 133.574 80.971 133.385 85.259 133.687 89.513 C 133.769 90.668 135.333 91.718 136.217 92.817 C 136.846 91.54 137.475 90.263 138.021 89.269 Z"/>
  <path fill="#03FFFF" opacity="1.000000" stroke="none" d="M 290.871 339.152 C 290.499 335.862 290.388 332.427 290.469 328.996 C 290.559 325.18 289.753 321.91 286.29 319.64 C 285.815 319.328 286.139 317.796 286.352 316.644 C 286.582 316.79 286.407 317.325 286.544 317.422 C 294.677 323.205 291.698 331.377 290.871 339.152 Z"/>
  <path fill="#E70FFB" opacity="1.000000" stroke="none" d="M 280.235 70.174 C 280.335 71.389 280.096 72.833 279.878 74.281 C 278.574 82.908 280.53 86.501 288.609 90.233 C 280.871 90.208 278.288 87.8 278.382 80.032 C 278.42 76.818 279.369 73.614 280.235 70.174 Z"/>
  <path fill="#E70FFB" opacity="1.000000" stroke="none" d="M 172.241 95.769 C 174.191 95.192 176.565 94.745 178.901 94.304 C 180.793 104.361 180.793 104.361 189.72 104.524 C 186.775 104.849 183.415 105.312 180.056 105.298 C 179.387 105.295 178.326 103.533 178.149 102.466 C 177.835 100.575 178.061 98.596 178.061 96.362 C 175.877 96.174 174.271 96.036 172.241 95.769 Z"/>
  <path fill="#03FFFF" opacity="1.000000" stroke="none" d="M 237.961 103.118 C 237.561 92.346 237.591 81.368 237.445 70.393 C 237.423 68.772 236.567 67.162 235.67 65.443 C 237.164 63.662 238.798 63.806 238.79 66.581 C 238.754 78.693 238.505 90.804 237.961 103.118 Z"/>
  <path fill="#F62DFD" opacity="1.000000" stroke="none" d="M 173.244 303.038 C 173.557 315.13 173.561 327.473 173.537 340.31 C 173.211 339.399 172.654 337.993 172.658 336.589 C 172.69 325.488 172.83 314.388 173.244 303.038 Z"/>
  <path fill="#24E8FC" opacity="1.000000" stroke="none" d="M 210.987 103.322 C 210.618 97.372 210.618 91.32 210.618 85.269 C 210.892 85.229 211.166 85.19 211.439 85.15 C 211.781 86.47 212.122 87.79 212.505 89.363 C 212.15 94.151 211.753 98.686 210.987 103.322 Z"/>
  <path fill="#24E8FC" opacity="1.000000" stroke="none" d="M 270.17 88.307 C 269.783 88.087 269.739 87.762 269.736 87.435 C 269.647 79.01 270.629 79.644 261.695 79.626 C 257.216 79.617 257.217 79.578 258.575 76.213 C 260.832 77.161 262.809 78.362 264.824 78.429 C 272.175 78.673 273.493 80.756 270.17 88.307 Z"/>
  <path fill="#24E8FC" opacity="1.000000" stroke="none" d="M 231.865 308.154 C 230.532 307.569 229.176 306.853 228.385 305.737 C 225.978 302.342 222.898 300.751 218.355 301.39 C 221.186 298.561 224.4 299.453 227.169 301.85 C 229.096 303.519 230.476 305.82 231.865 308.154 Z"/>
  <path fill="#FE06FF" opacity="1.000000" stroke="none" d="M 279.235 95.692 C 279.996 104.99 277.926 104.517 288.686 104.498 C 292.972 104.49 297.259 104.523 302.004 104.515 C 295.146 104.821 287.831 105.224 280.512 105.354 C 279.835 105.366 278.616 103.684 278.537 102.715 C 278.353 100.464 278.712 98.169 279.235 95.692 Z"/>
  <path fill="#FE06FF" opacity="1.000000" stroke="none" d="M 272.561 328.731 C 273.886 328.628 275.503 328.628 277.225 328.628 C 277.425 329.613 277.633 330.236 277.669 330.868 C 278.211 340.393 278.205 340.393 288.109 340.583 C 285.216 340.899 281.749 341.767 278.597 341.115 C 277.527 340.894 276.996 336.873 276.678 334.526 C 276.32 331.882 277.457 328.525 272.561 328.731 Z"/>
  <path fill="#03FFFF" opacity="1.000000" stroke="none" d="M 310.986 97.345 C 309.835 92.449 308.997 87.339 308.346 81.855 C 312.638 83.036 311.713 86.77 311.92 89.831 C 312.084 92.24 311.534 94.696 310.986 97.345 Z"/>
  <path fill="#24E8FC" opacity="1.000000" stroke="none" d="M 273.835 65.139 C 265.283 65.453 256.446 65.38 247.157 65.231 C 255.654 65.02 264.603 64.886 273.835 65.139 Z"/>
  <path fill="#FE06FF" opacity="1.000000" stroke="none" d="M 157.925 86.463 C 157.884 92.188 157.842 97.912 157.663 104.092 C 157.238 98.805 156.949 93.063 157.039 86.903 C 157.587 86.477 157.756 86.47 157.925 86.463 Z"/>
  <path fill="#CC1AF6" opacity="1.000000" stroke="none" d="M 158.137 86.213 C 157.756 86.47 157.587 86.477 157.167 86.444 C 157.668 83.945 158.42 81.486 159.402 78.759 C 159.204 80.982 158.777 83.472 158.137 86.213 Z"/>
  <path fill="#FE06FF" opacity="1.000000" stroke="none" d="M 157.723 104.91 C 160.738 104.542 163.955 104.543 167.578 104.581 C 164.631 104.838 161.278 105.059 157.723 104.91 Z"/>
  <path fill="#24E8FC" opacity="1.000000" stroke="none" d="M 235.078 309.528 C 235.211 310.482 234.981 311.421 234.559 313.149 C 233.18 311.315 232.358 310.222 231.572 308.786 C 232.643 308.8 233.679 309.156 235.078 309.528 Z"/>
  <path fill="#03FFFF" opacity="1.000000" stroke="none" d="M 308.511 81.211 C 306.703 81.098 304.809 80.663 302.719 79.915 C 304.49 80.031 306.457 80.459 308.511 81.211 Z"/>
  <path fill="#F62DFD" opacity="1.000000" stroke="none" d="M 121.314 68.95 C 121.347 69.297 121.132 69.753 120.696 70.346 C 120.673 70.009 120.869 69.534 121.314 68.95 Z"/>
  <path fill="#E70FFB" opacity="1.000000" stroke="none" d="M 281.27 68.865 C 281.389 69.079 281.214 69.328 280.796 69.69 C 280.752 69.542 280.894 69.241 281.27 68.865 Z"/>
  <path fill="#F62DFD" opacity="1.000000" stroke="none" d="M 120.219 70.435 C 120.368 70.726 120.233 71.068 119.821 71.467 C 119.675 71.179 119.805 70.832 120.219 70.435 Z"/>
  <path fill="#E70FFB" opacity="1.000000" stroke="none" d="M 289.675 90.687 C 289.614 90.587 289.927 90.581 290.08 90.558 C 290.232 90.535 290.058 90.804 290.058 90.804 C 290.058 90.804 289.736 90.787 289.675 90.687 Z"/>
  <path fill="#FCF7F6" opacity="1.000000" stroke="none" d="M 203.34 182.946 C 182.418 183.276 161.489 183.266 140.095 183.271 C 144.188 175.012 148.67 166.693 153.325 158.472 C 159.14 148.2 165.098 138.009 171.491 126.921 C 174.84 132.721 177.885 137.945 180.882 143.196 C 188.377 156.326 195.851 169.468 203.34 182.946 M 176.965 172.551 C 179.505 172.551 182.045 172.551 185.487 172.551 C 180.575 164.061 176.246 156.578 171.485 148.347 C 166.653 156.759 162.346 164.257 157.583 172.551 C 164.467 172.551 170.231 172.551 176.965 172.551 Z"/>
  <path fill="#FEFBFB" opacity="1.000000" stroke="none" d="M 292.472 139.078 C 286.611 145.627 280.678 151.85 274.527 158.304 C 280.505 163.885 286.885 169.84 293.192 175.728 C 289.437 179.562 286.608 182.451 283.321 185.808 C 277.444 179.538 271.477 173.172 264.692 165.934 C 257.99 172.969 252.071 179.182 245.862 185.581 C 242.648 182.871 239.725 179.976 236.301 176.583 C 242.771 170.514 249.066 164.607 255.582 158.495 C 248.688 152.09 242.288 146.145 235.436 139.779 C 239.655 135.956 242.665 133.228 245.892 130.303 C 251.72 136.416 257.658 142.645 263.924 149.217 C 270.536 142.145 276.491 135.774 282.77 129.057 C 286.658 132.972 289.529 135.862 292.472 139.078 Z"/>
  <path fill="#FAFAFA" opacity="1.000000" stroke="none" d="M 198.543 225.168 C 198.702 242.851 198.702 260.165 198.702 278.226 C 181.006 278.226 163.737 278.226 146.001 278.299 C 145.206 277.305 144.595 276.239 144.591 275.171 C 144.534 258.885 144.553 242.598 144.575 226.312 C 144.576 225.68 144.795 225.049 145.023 223.814 C 148 223.814 150.942 223.814 153.884 223.814 C 167.013 223.814 180.143 223.779 193.271 223.858 C 194.978 223.868 196.681 224.472 198.543 225.168 M 174.058 266.392 C 178.153 266.392 182.248 266.392 186.47 266.392 C 186.47 255.842 186.47 245.947 186.47 235.836 C 176.349 235.836 166.485 235.836 156.481 235.836 C 156.481 246.043 156.481 255.938 156.481 266.392 C 162.184 266.392 167.622 266.392 174.058 266.392 Z"/>
  <path fill="#FBFBFB" opacity="1.000000" stroke="none" d="M 294.632 244.191 C 297.032 259.045 291.461 271.331 279.646 277.924 C 267.879 284.492 254.79 282.816 242.974 273.059 C 234.068 262.821 231.186 251.581 236.319 239.098 C 241.685 226.051 253.718 219.265 268.377 220.45 C 280.453 221.425 291.039 230.909 294.632 244.191 M 247.266 255.027 C 250.574 265.608 259.44 270.911 269.484 268.317 C 277.982 266.123 284.088 256.435 282.38 247.857 C 280.416 237.996 271.289 231.81 261.188 233.493 C 251.789 235.059 245.75 243.916 247.266 255.027 Z"/>
  <path fill="#A03528" opacity="1.000000" stroke="none" d="M 176.48 172.551 C 170.231 172.551 164.467 172.551 157.583 172.551 C 162.346 164.257 166.653 156.759 171.485 148.347 C 176.246 156.578 180.575 164.061 185.487 172.551 C 182.045 172.551 179.505 172.551 176.48 172.551 Z"/>
  <path fill="#646466" opacity="1.000000" stroke="none" d="M 173.559 266.392 C 167.622 266.392 162.184 266.392 156.481 266.392 C 156.481 255.938 156.481 246.043 156.481 235.836 C 166.485 235.836 176.349 235.836 186.47 235.836 C 186.47 245.947 186.47 255.842 186.47 266.392 C 182.248 266.392 178.153 266.392 173.559 266.392 Z"/>
  <path fill="#656567" opacity="1.000000" stroke="none" d="M 247.152 254.637 C 245.75 243.916 251.789 235.059 261.188 233.493 C 271.289 231.81 280.416 237.996 282.38 247.857 C 284.088 256.435 277.982 266.123 269.484 268.317 C 259.44 270.911 250.574 265.608 247.152 254.637 Z"/>
</svg>